<svg width="155" height="32" viewBox="0 0 155 32" fill="none" xmlns="http://www.w3.org/2000/svg">
<path d="M7.66356 31.152C7.40756 31.024 7.05556 30.912 6.60756 30.816C6.15956 30.752 5.75956 30.672 5.40756 30.576C4.70356 30.32 4.17556 29.856 3.82356 29.184C3.50356 28.512 3.34356 27.696 3.34356 26.736C3.34356 25.456 3.55156 24 3.96756 22.368C4.41556 20.736 4.97556 19.056 5.64756 17.328C6.35156 15.568 7.08756 13.888 7.85556 12.288C8.62356 10.688 9.32756 9.264 9.96756 8.016C10.6396 6.768 11.1516 5.84 11.5036 5.232C10.4476 5.392 9.29556 5.648 8.04756 6C6.83156 6.32 5.79156 6.72 4.92756 7.2C4.06356 7.68 3.63156 8.256 3.63156 8.928C3.63156 9.568 4.03156 10.192 4.83156 10.8C5.08756 11.024 5.21556 11.232 5.21556 11.424C5.21556 11.712 5.07156 11.888 4.78356 11.952C4.68756 11.984 4.54356 12 4.35156 12C3.77556 12 3.21556 11.776 2.67156 11.328C2.15956 10.88 1.72756 10.288 1.37556 9.552C1.05556 8.784 0.895564 7.984 0.895563 7.152C0.895563 5.936 1.35956 4.736 2.28756 3.552C3.21556 2.368 4.84756 1.552 7.18356 1.104C7.75956 0.975999 8.89556 0.847999 10.5916 0.719999C12.2876 0.559999 14.1276 0.479999 16.1116 0.479999C17.8716 0.479999 19.5676 0.575999 21.1996 0.767998C22.8636 0.959997 24.2236 1.296 25.2796 1.776C26.3676 2.256 26.9116 2.944 26.9116 3.84C26.9116 4.064 26.8956 4.336 26.8636 4.656C26.8316 4.976 26.8156 5.232 26.8156 5.424L26.8156 5.52C26.8156 5.648 26.7676 5.728 26.6716 5.76C26.5756 5.792 26.4956 5.744 26.4316 5.616C26.2716 5.36 25.8076 5.152 25.0396 4.992C24.3036 4.832 23.3596 4.72 22.2076 4.656C21.0876 4.592 19.8716 4.576 18.5596 4.608C17.7916 5.792 16.8956 7.264 15.8716 9.024C14.8796 10.784 13.8716 12.704 12.8476 14.784C11.9516 16.64 11.1196 18.528 10.3516 20.448C9.58356 22.336 8.95956 24.08 8.47956 25.68C8.03156 27.248 7.80756 28.512 7.80756 29.472C7.80756 30.048 7.90356 30.464 8.09556 30.72C8.15956 30.784 8.19156 30.88 8.19156 31.008C8.19156 31.232 8.01556 31.28 7.66356 31.152ZM19.9474 30.288C18.3794 30.288 17.2754 29.936 16.6354 29.232C16.0274 28.496 15.7234 27.584 15.7234 26.496C15.7234 25.344 15.9314 24.112 16.3474 22.8C16.7954 21.456 17.2914 20.224 17.8354 19.104C18.4114 17.952 18.8594 17.072 19.1794 16.464C20.4914 14.032 21.9954 12.256 23.6914 11.136C25.4194 10.016 27.3234 9.456 29.4034 9.456C30.1394 9.456 31.0034 9.488 31.9954 9.552C32.9874 9.616 33.9954 9.648 35.0194 9.648C35.5314 9.648 36.0274 9.632 36.5074 9.6C36.9874 9.568 37.4514 9.552 37.8994 9.552L38.0914 9.552C38.6354 9.552 38.9074 9.648 38.9074 9.84C38.9074 9.968 38.7154 10.112 38.3314 10.272C37.9154 10.432 37.4194 10.976 36.8434 11.904C36.2674 12.8 35.6754 13.888 35.0674 15.168C34.4594 16.448 33.8834 17.744 33.3394 19.056C33.0514 19.792 32.6674 20.784 32.1874 22.032C31.7074 23.248 31.3554 24.496 31.1314 25.776C31.0994 26 31.0674 26.208 31.0354 26.4C31.0354 26.56 31.0354 26.72 31.0354 26.88C31.0354 27.68 31.2434 28.08 31.6594 28.08C32.1714 28.08 32.6994 27.808 33.2434 27.264C33.7874 26.72 34.3154 26.064 34.8274 25.296C35.2754 24.624 35.7234 23.872 36.1714 23.04C36.6194 22.208 37.0194 21.44 37.3714 20.736C37.7234 20 37.9794 19.488 38.1394 19.2C38.2354 19.008 38.3634 18.912 38.5234 18.912C38.7154 18.912 38.8914 19.056 39.0514 19.344C39.2114 19.6 39.2274 19.856 39.0994 20.112C38.4914 21.296 37.8354 22.56 37.1314 23.904C36.4274 25.248 35.6594 26.464 34.8274 27.552C33.4194 29.376 31.7874 30.288 29.9314 30.288C28.5234 30.288 27.4834 29.856 26.8114 28.992C26.1714 28.128 25.8514 27.088 25.8514 25.872C25.8514 25.328 25.8994 24.8 25.9954 24.288C25.6434 24.864 25.2114 25.616 24.6994 26.544C24.1874 27.44 23.5954 28.256 22.9234 28.992C22.2834 29.728 21.5634 30.144 20.7634 30.24C20.6354 30.24 20.5074 30.24 20.3794 30.24C20.2514 30.272 20.1074 30.288 19.9474 30.288ZM21.7234 27.84C22.0434 27.84 22.4594 27.552 22.9714 26.976C23.5154 26.4 24.0594 25.68 24.6034 24.816C25.1794 23.92 25.6754 23.024 26.0914 22.128C26.1874 21.872 26.4114 21.328 26.7634 20.496C27.1474 19.632 27.5634 18.64 28.0114 17.52C28.4914 16.368 28.9714 15.216 29.4514 14.064C29.9314 12.912 30.3474 11.904 30.6994 11.04C30.7314 10.944 30.7474 10.832 30.7474 10.704C30.7474 10.512 30.6514 10.416 30.4594 10.416C30.2674 10.416 30.0434 10.496 29.7874 10.656C29.5314 10.784 29.2914 10.928 29.0674 11.088C28.6514 11.408 28.1074 12.08 27.4354 13.104C26.7954 14.096 26.1074 15.264 25.3714 16.608C24.6674 17.952 23.9954 19.328 23.3554 20.736C22.7154 22.112 22.1874 23.376 21.7714 24.528C21.3874 25.648 21.1954 26.496 21.1954 27.072C21.1954 27.584 21.3714 27.84 21.7234 27.84ZM42.2123 30.336C40.2603 30.336 38.6443 29.76 37.3643 28.608C36.0843 27.456 35.4443 25.856 35.4443 23.808C35.4443 23.104 35.5243 22.368 35.6843 21.6C35.8443 20.832 36.1003 20.176 36.4523 19.632C36.8043 19.088 37.2683 18.816 37.8443 18.816C38.1963 18.816 38.4523 18.928 38.6123 19.152C38.9963 18.416 39.4123 17.68 39.8603 16.944C40.3083 16.208 40.7563 15.456 41.2043 14.688C41.7163 13.856 42.3083 12.944 42.9803 11.952C43.6843 10.928 44.4843 10.032 45.3803 9.264C46.2763 8.464 47.2523 8.016 48.3083 7.92C48.4363 7.888 48.5643 7.872 48.6923 7.872C48.8523 7.872 48.9963 7.872 49.1243 7.872C49.4763 7.872 49.8443 7.888 50.2283 7.92C50.6123 7.952 50.9003 7.984 51.0923 8.016C51.1563 8.048 51.2043 8.144 51.2363 8.304C51.2683 8.464 51.1883 8.544 50.9963 8.544C50.8683 8.544 50.6123 8.64 50.2283 8.832C49.8443 8.992 49.6203 9.392 49.5563 10.032C49.4923 12.272 49.3483 14.512 49.1243 16.752C48.9323 18.992 48.6283 20.864 48.2123 22.368C48.0203 23.136 47.7163 23.968 47.3003 24.864C46.8843 25.76 46.3883 26.56 45.8123 27.264C45.2363 27.968 44.6283 28.448 43.9883 28.704C44.6283 28.704 45.3003 28.512 46.0043 28.128C46.7403 27.712 47.4123 27.216 48.0203 26.64C48.6603 26.064 49.1403 25.552 49.4603 25.104C50.1643 24.112 50.8043 23.072 51.3803 21.984C51.9883 20.864 52.4363 20 52.7243 19.392C52.8203 19.232 52.9323 19.152 53.0603 19.152C53.2203 19.152 53.3643 19.248 53.4923 19.44C53.6203 19.632 53.6843 19.84 53.6843 20.064C53.6843 20.128 53.6683 20.192 53.6363 20.256C53.6363 20.32 53.6203 20.384 53.5883 20.448C53.0123 21.6 52.3723 22.768 51.6683 23.952C50.9963 25.104 50.2123 26.176 49.3163 27.168C48.4203 28.128 47.3963 28.896 46.2443 29.472C45.0923 30.048 43.7483 30.336 42.2123 30.336ZM39.0923 27.312C39.4443 27.312 39.7963 27.2 40.1483 26.976C40.5003 26.752 40.7883 26.4 41.0123 25.92C41.4923 24.864 41.9243 23.648 42.3083 22.272C42.6923 20.896 43.0283 19.536 43.3163 18.192C43.6043 16.816 43.8443 15.6 44.0363 14.544C44.2603 13.456 44.4203 12.672 44.5163 12.192C44.0363 12.768 43.4443 13.584 42.7403 14.64C42.0683 15.696 41.4123 16.752 40.7723 17.808C40.1643 18.864 39.7003 19.712 39.3803 20.352C39.4123 21.088 39.1243 21.744 38.5163 22.32C37.9083 22.896 37.3803 23.488 36.9323 24.096L36.9323 24.624C36.9323 24.752 36.9323 24.912 36.9323 25.104C36.9643 25.296 36.9963 25.472 37.0283 25.632C37.1883 26.144 37.4603 26.56 37.8443 26.88C38.2603 27.168 38.6763 27.312 39.0923 27.312ZM55.6362 30.384C54.4842 30.384 53.4442 30.064 52.5162 29.424C51.5882 28.752 51.1242 27.68 51.1242 26.208C51.1242 25.056 51.3482 23.648 51.7962 21.984C52.2442 20.32 52.8362 18.624 53.5722 16.896C54.3082 15.136 55.1082 13.552 55.9722 12.144L53.9082 12.144C53.7162 12.144 53.6202 12.064 53.6202 11.904C53.6202 11.776 53.7002 11.632 53.8602 11.472C54.0202 11.28 54.2122 11.152 54.4362 11.088C54.9482 10.928 55.6042 10.64 56.4042 10.224C57.2362 9.776 58.1002 9.264 58.9962 8.688C59.8922 8.112 60.7402 7.536 61.5402 6.96C62.3402 6.384 62.9802 5.888 63.4602 5.472C63.7482 5.216 64.0522 5.04 64.3722 4.944C64.7242 4.848 65.0602 4.8 65.3802 4.8C65.9242 4.8 66.3402 4.896 66.6282 5.088C66.9162 5.28 66.9162 5.472 66.6282 5.664C66.3722 5.824 66.0202 6.224 65.5722 6.864C65.1242 7.504 64.6602 8.208 64.1802 8.976C63.7322 9.744 63.3322 10.432 62.9802 11.04L66.6282 11.04C66.6922 11.04 66.7242 11.088 66.7242 11.184C66.7242 11.344 66.6602 11.552 66.5322 11.808C66.4042 12.032 66.2762 12.144 66.1482 12.144L62.3562 12.144C61.7162 13.264 61.0122 14.544 60.2442 15.984C59.4762 17.424 58.7402 18.896 58.0362 20.4C57.3642 21.872 56.8042 23.248 56.3562 24.528C55.9082 25.776 55.6842 26.768 55.6842 27.504C55.6842 28.304 56.0522 28.704 56.7882 28.704C57.5562 28.704 58.4202 28.336 59.3802 27.6C60.1802 26.928 60.9322 26.096 61.6362 25.104C62.3082 24.176 62.9002 23.216 63.4122 22.224C63.9562 21.232 64.4042 20.384 64.7562 19.68C64.8842 19.456 65.0602 19.344 65.2842 19.344C65.5082 19.344 65.6842 19.44 65.8122 19.632C65.9722 19.792 65.9882 20 65.8602 20.256C65.3802 21.216 64.7722 22.336 64.0362 23.616C63.3002 24.896 62.5162 26.064 61.6842 27.12C61.0122 27.952 60.3562 28.592 59.7162 29.04C59.1082 29.456 58.4522 29.776 57.7482 30C57.0762 30.256 56.3722 30.384 55.6362 30.384ZM70.2717 30.72C67.9357 30.72 66.2397 30.192 65.1837 29.136C64.1597 28.08 63.6477 26.688 63.6477 24.96C63.6477 23.648 63.9197 22.208 64.4637 20.64C64.8797 19.36 65.4397 18.064 66.1437 16.752C66.8477 15.408 67.6637 14.176 68.5917 13.056C69.5197 11.904 70.5437 10.992 71.6637 10.32C72.7837 9.616 73.9677 9.264 75.2157 9.264C76.8157 9.264 78.1117 9.52 79.1037 10.032C80.1277 10.512 80.6397 11.312 80.6397 12.432C80.6397 13.264 80.3037 14.304 79.6317 15.552C78.7357 17.28 77.4237 18.704 75.6957 19.824C73.9677 20.944 72.0317 21.584 69.8877 21.744C69.4077 23.056 69.1197 24.128 69.0237 24.96C68.9917 25.12 68.9757 25.28 68.9757 25.44C68.9757 25.568 68.9757 25.712 68.9757 25.872C68.9757 26.928 69.2157 27.696 69.6957 28.176C70.1757 28.624 70.7677 28.848 71.4717 28.848C72.7837 28.848 73.9357 28.512 74.9277 27.84C75.9197 27.168 76.7837 26.32 77.5197 25.296C78.2877 24.272 78.9437 23.248 79.4877 22.224C79.8077 21.648 80.0797 21.12 80.3037 20.64C80.5277 20.128 80.7037 19.76 80.8317 19.536C80.9917 19.28 81.1677 19.152 81.3597 19.152C81.5517 19.152 81.7277 19.264 81.8877 19.488C82.0477 19.68 82.0637 19.904 81.9357 20.16C81.5197 20.992 80.9437 22.096 80.2077 23.472C79.4717 24.848 78.6397 26.064 77.7117 27.12C76.6877 28.336 75.5837 29.248 74.3997 29.856C73.2477 30.432 71.8717 30.72 70.2717 30.72ZM70.5117 20.352C71.9517 19.808 73.2157 18.832 74.3037 17.424C75.4237 16.016 76.1757 14.464 76.5597 12.768C76.5917 12.608 76.6077 12.464 76.6077 12.336C76.6397 12.208 76.6557 12.08 76.6557 11.952C76.6557 11.312 76.4637 10.992 76.0797 10.992C75.7597 10.992 75.4237 11.216 75.0717 11.664C74.5597 12.272 74.0157 13.104 73.4397 14.16C72.8637 15.184 72.3517 16.192 71.9037 17.184C71.4557 18.176 71.1197 18.928 70.8957 19.44L70.5117 20.352ZM99.2817 30.384C97.6497 30.384 96.5457 29.936 95.9697 29.04C95.3937 28.144 95.1057 27.104 95.1057 25.92C95.1057 25.056 95.2017 24.192 95.3937 23.328C95.5857 22.464 95.7937 21.696 96.0177 21.024C96.2417 20.352 96.4017 19.888 96.4977 19.632C96.8817 18.48 97.2817 17.376 97.6977 16.32C98.1457 15.232 98.4817 14.48 98.7057 14.064C98.6097 14.224 98.2577 14.688 97.6497 15.456C97.0417 16.224 96.3217 17.184 95.4897 18.336C94.6897 19.456 93.8897 20.656 93.0897 21.936C92.2897 23.184 91.6177 24.4 91.0737 25.584C90.5617 26.736 90.3057 27.728 90.3057 28.56C90.3057 29.136 90.4337 29.552 90.6897 29.808C90.7857 29.904 90.8337 29.984 90.8337 30.048C90.8337 30.208 90.6577 30.256 90.3057 30.192C89.5697 30.064 88.8497 29.936 88.1457 29.808C87.4417 29.648 86.8497 29.344 86.3697 28.896C85.9217 28.416 85.6977 27.632 85.6977 26.544C85.6977 25.68 85.9217 24.64 86.3697 23.424C86.8177 22.176 87.3457 20.896 87.9537 19.584C88.5617 18.272 89.0897 17.056 89.5377 15.936C89.6337 15.68 89.7937 15.296 90.0177 14.784C90.2417 14.24 90.4657 13.68 90.6897 13.104C90.9457 12.496 91.1377 11.968 91.2657 11.52C91.3937 11.04 91.4257 10.72 91.3617 10.56C91.2977 10.432 91.2657 10.336 91.2657 10.272C91.2657 9.888 91.5217 9.696 92.0337 9.696C92.5457 9.696 93.0577 9.776 93.5697 9.936C94.1137 10.064 94.5937 10.288 95.0097 10.608C95.4577 10.928 95.8097 11.312 96.0657 11.76C96.3217 12.208 96.4497 12.704 96.4497 13.248C96.4497 13.6 96.3697 14.016 96.2097 14.496C96.1457 14.72 96.0017 15.024 95.7777 15.408C95.5857 15.76 95.3777 16.144 95.1537 16.56C94.9297 16.976 94.6897 17.408 94.4337 17.856C94.2097 18.304 94.1297 18.544 94.1937 18.576C94.9937 17.168 95.8577 15.856 96.7857 14.64C97.7457 13.392 98.6097 12.32 99.3777 11.424C100.178 10.528 100.706 9.872 100.962 9.456C101.218 9.264 101.634 9.168 102.21 9.168C102.882 9.168 103.57 9.376 104.274 9.792C104.978 10.208 105.33 10.96 105.33 12.048C105.33 12.944 105.01 14.032 104.37 15.312C102.994 17.936 101.938 20.304 101.202 22.416C100.466 24.496 100.098 26.032 100.098 27.024C100.098 27.728 100.29 28.08 100.674 28.08C101.122 28.08 101.634 27.792 102.21 27.216C102.786 26.64 103.33 25.952 103.842 25.152C104.546 24.128 105.186 23.04 105.762 21.888C106.37 20.736 106.786 19.936 107.01 19.488C107.106 19.296 107.25 19.2 107.442 19.2C107.634 19.2 107.81 19.312 107.97 19.536C108.162 19.728 108.194 19.952 108.066 20.208C107.842 20.656 107.506 21.28 107.058 22.08C106.642 22.88 106.162 23.744 105.618 24.672C105.074 25.568 104.482 26.432 103.842 27.264C103.138 28.224 102.434 28.992 101.73 29.568C101.026 30.112 100.21 30.384 99.2817 30.384ZM112.268 30.336C110.22 30.336 108.62 30 107.468 29.328C106.316 28.656 105.74 27.36 105.74 25.44C105.74 24.096 105.948 22.688 106.364 21.216C106.812 19.712 107.436 18.256 108.236 16.848C109.036 15.44 109.98 14.16 111.068 13.008C112.156 11.856 113.356 10.944 114.668 10.272C115.98 9.568 117.372 9.216 118.844 9.216C119.804 9.21599 120.716 9.29599 121.58 9.45599C122.444 9.616 123.148 9.984 123.692 10.56C124.236 11.104 124.508 11.968 124.508 13.152C124.508 14.4 124.172 16.016 123.5 18C122.828 19.984 121.916 21.92 120.764 23.808C120.7 24.064 120.668 24.32 120.668 24.576C120.668 24.928 120.732 25.28 120.86 25.632C121.02 25.984 121.292 26.16 121.676 26.16C122.188 26.16 122.716 25.808 123.26 25.104C123.836 24.304 124.428 23.344 125.036 22.224C125.644 21.104 126.108 20.192 126.428 19.488C126.492 19.296 126.636 19.2 126.86 19.2C127.084 19.2 127.276 19.296 127.436 19.488C127.628 19.68 127.644 19.904 127.484 20.16C127.228 20.64 126.892 21.312 126.476 22.176C126.06 23.008 125.58 23.856 125.036 24.72C124.492 25.584 123.9 26.272 123.26 26.784C122.78 27.168 122.268 27.36 121.724 27.36C121.084 27.36 120.604 27.216 120.284 26.928C119.964 26.608 119.708 26.16 119.516 25.584C118.492 26.96 117.356 28.096 116.108 28.992C114.86 29.888 113.58 30.336 112.268 30.336ZM111.356 28.848C111.708 28.848 112.188 28.384 112.796 27.456C113.404 26.528 114.06 25.344 114.764 23.904C115.468 22.432 116.156 20.944 116.828 19.44C116.956 19.184 117.164 18.72 117.452 18.048C117.74 17.344 118.044 16.576 118.364 15.744C118.684 14.88 118.956 14.048 119.18 13.248C119.404 12.448 119.516 11.808 119.516 11.328C119.516 10.784 119.356 10.512 119.036 10.512C118.748 10.512 118.38 10.8 117.932 11.376C117.484 11.92 116.988 12.64 116.444 13.536C115.9 14.432 115.372 15.392 114.86 16.416C114.348 17.44 113.9 18.4 113.516 19.296C113.132 20.192 112.732 21.2 112.316 22.32C111.9 23.44 111.548 24.512 111.26 25.536C111.004 26.528 110.876 27.328 110.876 27.936C110.876 28.544 111.036 28.848 111.356 28.848ZM127.977 30.24C126.729 30.24 125.849 29.888 125.337 29.184C124.857 28.48 124.617 27.632 124.617 26.64C124.617 25.168 124.841 23.76 125.289 22.416C125.737 21.04 126.265 19.664 126.873 18.288C127.513 16.912 128.105 15.52 128.649 14.112C128.905 13.376 129.129 12.672 129.321 12C129.513 11.296 129.609 10.736 129.609 10.32C129.609 10 129.561 9.776 129.465 9.64799L129.465 9.504C129.465 9.344 129.577 9.28 129.801 9.31199C130.057 9.376 130.297 9.44 130.521 9.504C130.777 9.53599 131.033 9.59999 131.289 9.696C132.537 10.112 133.385 10.672 133.833 11.376C134.313 12.048 134.553 12.752 134.553 13.488C134.553 13.616 134.537 13.744 134.505 13.872C134.505 14 134.489 14.128 134.457 14.256C134.393 14.544 134.185 15.136 133.833 16.032C133.481 16.896 133.081 17.824 132.633 18.816C132.121 20 131.593 21.168 131.049 22.32C130.505 23.44 130.009 24.688 129.561 26.064C129.529 26.16 129.513 26.304 129.513 26.496C129.513 26.944 129.705 27.168 130.089 27.168C130.441 27.168 130.777 27.008 131.097 26.688C131.577 26.208 132.153 25.472 132.825 24.48C133.497 23.456 134.329 22 135.321 20.112C135.961 18.928 136.457 17.856 136.809 16.896C137.193 15.904 137.513 14.928 137.769 13.968C137.865 13.52 137.945 13.088 138.009 12.672C138.073 12.224 138.105 11.84 138.105 11.52C138.105 11.136 138.057 10.88 137.961 10.752C137.897 10.624 137.881 10.512 137.913 10.416C137.945 10.32 138.041 10.288 138.201 10.32C139.033 10.384 139.833 10.592 140.601 10.944C141.401 11.264 142.057 11.712 142.569 12.288C143.081 12.864 143.337 13.584 143.337 14.448C143.337 14.768 143.289 15.104 143.193 15.456C143.097 15.808 142.889 16.416 142.569 17.28C142.249 18.144 141.865 19.12 141.417 20.208C141.001 21.296 140.601 22.368 140.217 23.424C139.833 24.48 139.545 25.392 139.353 26.16C139.321 26.288 139.289 26.4 139.257 26.496C139.257 26.56 139.257 26.624 139.257 26.688C139.257 27.072 139.385 27.264 139.641 27.264C139.833 27.264 140.105 27.12 140.457 26.832C140.937 26.384 141.545 25.632 142.281 24.576C143.049 23.488 143.929 22 144.921 20.112C145.657 18.736 146.233 17.376 146.649 16.032C147.097 14.688 147.321 13.504 147.321 12.48C147.321 11.328 147.017 10.464 146.409 9.88799C146.281 9.75999 146.217 9.696 146.217 9.696C146.217 9.632 146.409 9.58399 146.793 9.55199C146.953 9.55199 147.113 9.55199 147.273 9.55199C147.465 9.51999 147.625 9.50399 147.753 9.50399C149.449 9.50399 150.681 9.79199 151.449 10.368C152.249 10.912 152.649 11.568 152.649 12.336C152.649 12.496 152.617 12.704 152.553 12.96C152.361 13.792 151.977 14.816 151.401 16.032C150.857 17.216 150.201 18.464 149.433 19.776C148.889 20.704 148.505 21.52 148.281 22.224C148.089 22.896 147.993 23.536 147.993 24.144C147.993 25.36 148.329 25.968 149.001 25.968C149.545 25.968 150.089 25.616 150.633 24.912C151.177 24.272 151.721 23.44 152.265 22.416C152.841 21.392 153.321 20.48 153.705 19.68C153.801 19.456 153.977 19.344 154.233 19.344C154.425 19.344 154.601 19.44 154.761 19.632C154.921 19.792 154.937 20 154.809 20.256C154.649 20.576 154.473 20.928 154.281 21.312C154.121 21.664 153.929 22.032 153.705 22.416C153.385 22.992 153.001 23.664 152.553 24.432C152.105 25.2 151.561 25.888 150.921 26.496C150.313 27.072 149.577 27.36 148.713 27.36C148.009 27.36 147.481 27.072 147.129 26.496C146.777 25.92 146.601 25.28 146.601 24.576C146.601 24.448 146.601 24.32 146.601 24.192C146.601 24.064 146.617 23.936 146.649 23.808C145.817 24.96 144.873 26.032 143.817 27.024C142.793 27.984 141.737 28.768 140.649 29.376C139.593 29.952 138.569 30.24 137.577 30.24C136.425 30.24 135.593 29.872 135.081 29.136C134.601 28.368 134.361 27.44 134.361 26.352C134.361 26.064 134.377 25.776 134.409 25.488C134.473 25.168 134.521 24.864 134.553 24.576C133.465 26.208 132.377 27.568 131.289 28.656C130.201 29.712 129.097 30.24 127.977 30.24Z" fill="#F72D57"/>
</svg>
